<svg width="9" height="14" viewBox="0 0 9 14" fill="none" xmlns="http://www.w3.org/2000/svg">
<path d="M7.46667 4.33333C7.33397 3.95683 7.09163 3.62864 6.77085 3.39102C6.45006 3.1534 6.0655 3.01722 5.66667 3H3C2.46957 3 1.96086 3.21071 1.58579 3.58579C1.21071 3.96086 1 4.46957 1 5C1 5.53043 1.21071 6.03914 1.58579 6.41421C1.96086 6.78929 2.46957 7 3 7H5.66667C6.1971 7 6.70581 7.21071 7.08088 7.58579C7.45595 7.96086 7.66667 8.46957 7.66667 9C7.66667 9.53043 7.45595 10.0391 7.08088 10.4142C6.70581 10.7893 6.1971 11 5.66667 11H3C2.60116 10.9828 2.21661 10.8466 1.89582 10.609C1.57503 10.3714 1.3327 10.0432 1.2 9.66667" stroke="#0E0422" stroke-width="2" stroke-linecap="round" stroke-linejoin="round"/>
<path d="M4.33325 11V13M4.33325 1V3V1Z" stroke="#0E0422" stroke-width="2" stroke-linecap="round" stroke-linejoin="round"/>
</svg>
