<svg width="39" height="45" viewBox="0 0 39 45" fill="none" xmlns="http://www.w3.org/2000/svg">
<path d="M23.4369 45C17.914 43.0388 14.4529 39.017 12.5321 33.5869C12.002 32.2025 11.8267 30.7052 12.0226 29.2341C12.2186 27.763 12.7794 26.3657 13.653 25.1719C15.4455 22.6404 17.9311 21.5518 20.977 22.1782C24.023 22.8046 26.0036 24.8133 26.7994 27.8588C27.0603 28.861 27.0048 29.9453 27.0818 30.995C27.1036 31.6876 27.3041 32.3623 27.6635 32.9526C28.0229 33.5428 28.5288 34.028 29.131 34.3602C29.6671 34.6572 30.2661 34.8199 30.8775 34.8346C31.4889 34.8493 32.0947 34.7156 32.6443 34.4447C33.1938 34.1738 33.6709 33.7736 34.0354 33.2778C34.4 32.782 34.6415 32.2051 34.7394 31.5955C34.9511 30.0233 34.861 28.4247 34.4741 26.8868C33.4517 22.0659 30.9619 18.2471 26.701 15.7546C23.9256 14.1654 20.7139 13.5306 17.55 13.9459C14.3861 14.3613 11.4418 15.8042 9.16106 18.057C6.29262 20.8564 4.54358 24.6231 4.24697 28.6402C3.95037 32.6572 5.1268 36.6441 7.55242 39.8421C7.72102 40.0141 7.84917 40.2223 7.92695 40.4512C8.00473 40.68 8.03026 40.9237 8.00173 41.164C7.967 41.4358 7.85023 41.6903 7.6673 41.8927C7.48438 42.0952 7.24411 42.236 6.97923 42.2958C6.70416 42.3735 6.41196 42.3624 6.14347 42.264C5.87497 42.1656 5.64362 41.9849 5.48192 41.7472C4.09873 40.0077 3.04973 38.0225 2.38891 35.8938C0.348295 29.1116 1.46917 22.8996 5.95254 17.4393C7.44584 15.5558 9.31999 14.0158 11.4498 12.9222C13.5797 11.8286 15.9163 11.2066 18.3033 11.0978C25.2465 10.6917 30.5597 13.6897 34.3929 19.4178C36.6615 22.8635 37.788 26.9476 37.6099 31.0814C37.5536 32.7732 36.8752 34.3832 35.707 35.5972C34.5387 36.8112 32.9644 37.5422 31.2913 37.6476C29.6455 37.718 28.0321 37.1709 26.762 36.1117C25.4918 35.0525 24.6548 33.5561 24.4122 31.9108C24.2753 30.9734 24.3353 30.0101 24.2284 29.0641C23.899 26.1266 20.8572 24.1005 18.1792 25.0595C16.2926 25.7334 15.33 27.2454 14.9364 29.1461C14.5428 31.0469 15.0048 32.7273 15.792 34.3775C17.2052 37.2877 19.397 39.7403 22.1192 41.4577C22.713 41.8819 23.4059 42.1425 24.1298 42.2137C24.4208 42.2472 24.6928 42.3774 24.9027 42.5838C25.1125 42.7902 25.2485 43.0612 25.2893 43.3542C25.3459 43.6518 25.303 43.9601 25.1675 44.2305C25.032 44.501 24.8117 44.7185 24.5407 44.8488L24.2325 45H23.4369Z" fill="#727A81"/>
<path d="M14.8245 45C14.4704 44.7824 14.1381 44.5307 13.8321 44.2483C11.2354 41.3886 9.0493 38.2653 7.63755 34.6237C6.44864 31.5759 6.4111 28.193 7.53206 25.1191C8.65302 22.0452 10.8542 19.4947 13.7166 17.9534C16.6345 16.4284 20.0258 16.1109 23.1715 17.0682C26.3173 18.0254 28.9702 20.1821 30.5678 23.081C31.7018 25.0705 32.3088 27.3216 32.3304 29.617C32.3304 30.5717 31.8298 31.2067 31.0042 31.2326C30.1785 31.2585 29.5754 30.6451 29.5497 29.6731C29.5474 28.2122 29.2414 26.768 28.6519 25.4338C28.0624 24.0997 27.2024 22.9052 26.1273 21.9276C24.9973 20.8891 23.6433 20.1306 22.1726 19.7122C20.7019 19.2938 19.155 19.227 17.6544 19.5171C16.1537 19.8072 14.7406 20.4462 13.5269 21.3834C12.3133 22.3207 11.3323 23.5305 10.662 24.917C9.10056 28.0359 9.15198 31.1937 10.5338 34.3645C11.9026 37.3617 13.756 40.1078 16.0181 42.4902C16.6085 43.1381 16.6985 43.933 16.1809 44.4946C15.955 44.6923 15.7065 44.8619 15.4408 45H14.8245Z" fill="#4F5962"/>
<path d="M38.9914 17.1369C38.9619 17.169 38.9374 17.2054 38.9187 17.2449C38.8461 17.4999 38.699 17.7269 38.4968 17.8964C38.2946 18.0659 38.0467 18.1701 37.7851 18.1953C37.5172 18.2381 37.2427 18.1989 36.9972 18.0826C36.7516 17.9663 36.5462 17.7783 36.4075 17.543C35.5124 16.1908 34.4613 14.9509 33.2761 13.8495C28.9253 9.84931 23.8173 7.90969 17.9478 8.39351C11.5308 8.92485 6.52126 12.0308 2.78655 17.2795C2.67249 17.5007 2.51451 17.6959 2.3224 17.8527C2.13028 18.0096 1.908 18.1247 1.66983 18.191C1.39776 18.2452 1.11595 18.2152 0.861016 18.105C0.606078 17.9948 0.389949 17.8095 0.241036 17.5732C0.0778696 17.3439 -0.00655273 17.0671 0.000397161 16.7848C0.00734706 16.5025 0.105222 16.2303 0.279472 16.0094C1.27765 14.6634 2.34879 13.3741 3.48799 12.1475C6.63027 8.95526 10.658 6.8012 15.0387 5.97007C22.1316 4.60067 28.4846 6.29838 34.106 10.8429C35.844 12.2662 37.3636 13.9418 38.615 15.815C38.7519 16.0137 38.8717 16.247 39 16.4371L38.9914 17.1369Z" fill="#4F5962"/>
<path d="M20.553 0C25.8235 0.0820774 31.3294 2.23337 36.0481 6.44523C36.2608 6.6013 36.4276 6.81267 36.5308 7.05684C36.634 7.30101 36.6698 7.56886 36.6342 7.8319C36.446 8.96803 35.2094 9.38274 34.2897 8.63972C33.3699 7.89671 32.5016 7.14073 31.539 6.47979C27.7276 3.8718 23.1791 2.58746 18.5809 2.82087C13.6925 3.02708 9.01758 4.9001 5.31897 8.1343C5.11791 8.3071 4.92972 8.48421 4.72866 8.65268C4.45443 8.89894 4.09522 9.02653 3.72871 9.00794C3.3622 8.98936 3.0177 8.82609 2.76929 8.55333C2.64318 8.41558 2.54599 8.25349 2.48353 8.07683C2.42106 7.90016 2.39463 7.71256 2.40582 7.52532C2.41701 7.33807 2.46544 7.15504 2.54849 6.98725C2.63154 6.81945 2.74739 6.67034 2.88898 6.54891C4.83867 4.75097 7.06165 3.28079 9.47292 2.19449C12.6044 0.751657 16.061 0 20.553 0Z" fill="#4F5962"/>
<path d="M28.8525 42.2482C26.9246 42.1121 25.0907 41.3551 23.6205 40.0883C20.1553 37.2718 18.1917 33.6517 18.0334 29.1072C18.0034 28.1698 18.564 27.5262 19.3897 27.5132C20.2153 27.5002 20.7671 28.1309 20.8185 29.0597C21.0324 33.237 22.8848 36.4467 26.4056 38.6541C27.2163 39.1459 28.1383 39.4196 29.0835 39.449C29.272 39.4487 29.4586 39.4872 29.6319 39.5621C29.8052 39.6369 29.9618 39.7465 30.0919 39.8843C30.2219 40.0221 30.3228 40.1851 30.3885 40.3635C30.4542 40.5419 30.4832 40.7319 30.4739 40.9221C30.4576 41.1182 30.4022 41.3089 30.311 41.4828C30.2198 41.6568 30.0948 41.8103 29.9433 41.9341C29.7919 42.058 29.6171 42.1497 29.4297 42.2037C29.2423 42.2577 29.0459 42.2728 28.8525 42.2482Z" fill="#4F5962"/>
</svg>
