<svg width="20" height="20" viewBox="0 0 20 20" fill="none" xmlns="http://www.w3.org/2000/svg">
<g clip-path="url(#clip0_41_3874)">
<path d="M9.99984 18.3337C5.39734 18.3337 1.6665 14.6028 1.6665 10.0003C1.6665 5.39783 5.39734 1.66699 9.99984 1.66699C14.6023 1.66699 18.3332 5.39783 18.3332 10.0003C18.3332 14.6028 14.6023 18.3337 9.99984 18.3337ZM9.16651 12.5003V14.167H10.8332V12.5003H9.16651ZM10.8332 11.1295C11.5029 10.9276 12.0778 10.492 12.4533 9.90178C12.8288 9.3116 12.9798 8.6062 12.8788 7.91405C12.7778 7.22189 12.4316 6.58903 11.9032 6.13071C11.3748 5.67239 10.6993 5.41911 9.99984 5.41699C9.32555 5.41694 8.67206 5.65045 8.1505 6.07782C7.62894 6.50519 7.27151 7.10002 7.13901 7.76116L8.77401 8.08866C8.82041 7.85652 8.93177 7.64233 9.09514 7.47101C9.25852 7.29969 9.46718 7.17828 9.69686 7.12091C9.92654 7.06355 10.1678 7.07258 10.3925 7.14697C10.6173 7.22135 10.8163 7.35802 10.9664 7.54109C11.1165 7.72415 11.2115 7.94607 11.2404 8.18103C11.2693 8.41599 11.2309 8.65433 11.1296 8.86831C11.0284 9.0823 10.8685 9.26313 10.6684 9.38977C10.4684 9.51641 10.2366 9.58364 9.99984 9.58366C9.77882 9.58366 9.56686 9.67146 9.41058 9.82774C9.2543 9.98402 9.16651 10.196 9.16651 10.417V11.667H10.8332V11.1295Z" fill="white"/>
</g>
<defs>
<clipPath id="clip0_41_3874">
<rect width="20" height="20" fill="white"/>
</clipPath>
</defs>
</svg>
