<svg width="20" height="20" viewBox="0 0 20 20" fill="none" xmlns="http://www.w3.org/2000/svg">
<path d="M8.09619 2.42383C8.16679 2.43665 8.19453 2.46358 8.20264 2.47168C8.20404 2.47308 8.2269 2.49473 8.23779 2.55664C8.24897 2.62065 8.25847 2.79185 8.12061 3.1084L8.11963 3.11035C7.70248 4.07447 7.49951 5.09301 7.49951 6.1416V6.14551C7.5089 8.04131 8.25251 9.78884 9.44775 11.123V11.124C10.8013 12.6433 12.7474 13.6312 14.9009 13.7236C15.4878 13.7513 16.0677 13.7043 16.6304 13.6045H16.6313C16.992 13.5401 17.1677 13.5894 17.2319 13.6162C17.2916 13.6412 17.3015 13.6657 17.2964 13.6572L17.3013 13.666L17.3071 13.6748C17.3096 13.6785 17.3256 13.7057 17.3218 13.7705C17.3174 13.8446 17.2826 14.0274 17.0659 14.3281C15.558 16.3726 13.1687 17.5751 10.6167 17.5752C10.5107 17.5752 10.4005 17.5681 10.2632 17.5596H10.2544L10.2466 17.5586L9.96338 17.542C9.30558 17.4908 8.66574 17.3543 8.0542 17.1416H8.05322C5.11897 16.1252 2.91697 13.4292 2.68896 10.3066H2.68994C2.46219 6.97166 4.38234 3.85274 7.49463 2.54199L7.49561 2.54297C7.83575 2.40178 8.02157 2.41029 8.09619 2.42383Z" stroke="white" stroke-width="1.5"/>
</svg>
